<svg width="35" height="35" viewBox="0 0 35 35" fill="none" xmlns="http://www.w3.org/2000/svg">
<g id="ant-design:github-filled">
<path id="Vector" d="M17.4863 2.60791C9.03369 2.60449 2.1875 9.44727 2.1875 17.8931C2.1875 24.5718 6.47021 30.249 12.4346 32.334C13.2378 32.5357 13.1147 31.9648 13.1147 31.5752V28.9263C8.47656 29.4697 8.28857 26.4004 7.97754 25.8877C7.34863 24.8145 5.86182 24.541 6.30615 24.0283C7.3623 23.4849 8.43896 24.165 9.68652 26.0073C10.5889 27.3438 12.3491 27.1182 13.2412 26.896C13.436 26.0928 13.853 25.375 14.4272 24.8179C9.62158 23.9565 7.61865 21.0239 7.61865 17.5376C7.61865 15.8457 8.17578 14.2905 9.26953 13.0361C8.57227 10.9683 9.33447 9.19776 9.43701 8.93457C11.4229 8.75684 13.4873 10.3564 13.6479 10.4829C14.7759 10.1787 16.0645 10.0181 17.5068 10.0181C18.9561 10.0181 20.248 10.1855 21.3862 10.4932C21.7725 10.1992 23.6865 8.8252 25.5322 8.99268C25.6313 9.25586 26.3765 10.9854 25.7202 13.0259C26.8276 14.2837 27.3916 15.8525 27.3916 17.5479C27.3916 21.041 25.375 23.9771 20.5557 24.8247C20.9685 25.2307 21.2962 25.7148 21.5198 26.2488C21.7434 26.7829 21.8583 27.3561 21.8579 27.9351V31.7803C21.8853 32.0879 21.8579 32.3921 22.3706 32.3921C28.4238 30.3516 32.7817 24.6333 32.7817 17.8965C32.7817 9.44727 25.9321 2.60791 17.4863 2.60791Z" fill="black"/>
</g>
</svg>
