<svg width="40" height="40" viewBox="0 0 40 40" fill="none" xmlns="http://www.w3.org/2000/svg">
<g id="Sun-one (&#229;&#164;&#170;&#233;&#152;&#179;1)">
<rect width="40" height="40" fill="#5B5A5A"/>
<path id="Vector (Stroke)" fillRule="evenodd" clipRule="evenodd" d="M7.5 20C7.5 13.0964 13.0964 7.5 20 7.5C26.9036 7.5 32.5 13.0964 32.5 20C32.5 26.9036 26.9036 32.5 20 32.5C13.0964 32.5 7.5 26.9036 7.5 20ZM20 10.8333C14.9374 10.8333 10.8333 14.9374 10.8333 20C10.8333 25.0626 14.9374 29.1667 20 29.1667C25.0626 29.1667 29.1667 25.0626 29.1667 20C29.1667 14.9374 25.0626 10.8333 20 10.8333Z" fill="#D8D8D8"/>
<path id="Vector" d="M20 4.99998C21.1506 4.99998 22.0834 4.06724 22.0834 2.91665C22.0834 1.76605 21.1506 0.833313 20 0.833313C18.8494 0.833313 17.9167 1.76605 17.9167 2.91665C17.9167 4.06724 18.8494 4.99998 20 4.99998Z" fill="#D8D8D8"/>
<path id="Vector_2" d="M32.0833 9.99998C33.2339 9.99998 34.1667 9.06723 34.1667 7.91665C34.1667 6.76605 33.2339 5.83331 32.0833 5.83331C30.9327 5.83331 30 6.76605 30 7.91665C30 9.06723 30.9327 9.99998 32.0833 9.99998Z" fill="#D8D8D8"/>
<path id="Vector_3" d="M37.0833 22.0834C38.2339 22.0834 39.1667 21.1506 39.1667 20C39.1667 18.8494 38.2339 17.9167 37.0833 17.9167C35.9327 17.9167 35 18.8494 35 20C35 21.1506 35.9327 22.0834 37.0833 22.0834Z" fill="#D8D8D8"/>
<path id="Vector_4" d="M32.0833 34.1667C33.2339 34.1667 34.1667 33.2339 34.1667 32.0833C34.1667 30.9327 33.2339 30 32.0833 30C30.9327 30 30 30.9327 30 32.0833C30 33.2339 30.9327 34.1667 32.0833 34.1667Z" fill="#D8D8D8"/>
<path id="Vector_5" d="M20 39.1667C21.1506 39.1667 22.0834 38.2339 22.0834 37.0833C22.0834 35.9327 21.1506 35 20 35C18.8494 35 17.9167 35.9327 17.9167 37.0833C17.9167 38.2339 18.8494 39.1667 20 39.1667Z" fill="#D8D8D8"/>
<path id="Vector_6" d="M7.91665 34.1667C9.06723 34.1667 9.99998 33.2339 9.99998 32.0833C9.99998 30.9327 9.06723 30 7.91665 30C6.76605 30 5.83331 30.9327 5.83331 32.0833C5.83331 33.2339 6.76605 34.1667 7.91665 34.1667Z" fill="#D8D8D8"/>
<path id="Vector_7" d="M2.91665 22.0834C4.06724 22.0834 4.99998 21.1506 4.99998 20C4.99998 18.8494 4.06724 17.9167 2.91665 17.9167C1.76605 17.9167 0.833313 18.8494 0.833313 20C0.833313 21.1506 1.76605 22.0834 2.91665 22.0834Z" fill="#D8D8D8"/>
<path id="Vector_8" d="M7.91665 9.99998C9.06723 9.99998 9.99998 9.06723 9.99998 7.91665C9.99998 6.76605 9.06723 5.83331 7.91665 5.83331C6.76605 5.83331 5.83331 6.76605 5.83331 7.91665C5.83331 9.06723 6.76605 9.99998 7.91665 9.99998Z" fill="#D8D8D8"/>
</g>
</svg>
